<svg xmlns="http://www.w3.org/2000/svg" viewBox="0 0 453.6 72.7"><defs><style>.cls-1{fill:#fff;}</style></defs><g id="Capa_2" data-name="Capa 2"><g id="Capa_1-2" data-name="Capa 1"><path class="cls-1" d="M52.93,1.21C38.31,1.2,23.05,4.5,7.64,8.77A7.89,7.89,0,0,0,2.77,12a12.35,12.35,0,0,0-1.55,4.56C-.28,25-.1,33.2.21,42.32c.07,2.09.38,4.57,1.36,6.07a6.89,6.89,0,0,0,4.85,2.8c2.66.39,5.33.73,8,1l-.59,16.46a3.58,3.58,0,0,0,1.34,3,4.27,4.27,0,0,0,2.32.84A4.61,4.61,0,0,0,22,70.14c4.15-8,6.76-11.53,12-16.84,13.55.34,25.38-.42,38.77-1.41,4.74-.12,8-4,8.85-7.08,2.57-8,3-17.91,3.24-27.91.12-4-1.26-7.85-3.69-9.9C78.81,5.12,76,4.44,73.44,3.74A99.11,99.11,0,0,0,52.93,1.21ZM72.41,7.48c2.57.7,4.84,1.37,6.27,2.53,2.38,2.53,2.3,4.22,2.27,7-.27,9.69-.73,19.11-2.92,26.24-1,2.66-2.59,4.55-5.69,4.84-13.65,1-25.49,1.79-39.21,1.4a1.94,1.94,0,0,0-1.44.57c-5.76,5.82-8.71,9.86-13.1,18.32a.73.73,0,0,1-.6.33.28.28,0,0,1-.27-.28l.59-17.86a2,2,0,0,0-1.71-2Q11.79,48.09,7,47.37c-1.38-.21-1.88-.59-2.26-1.15a9.53,9.53,0,0,1-.69-4c-.31-9-.46-16.94.93-24.8a11.2,11.2,0,0,1,1-3.34c.77-1.2,1.94-1.38,3.12-1.7C24.2,8.19,38.94,5.08,52.81,5.07A95,95,0,0,1,72.41,7.48Zm-52,15.31a6.69,6.69,0,0,0-.27,8.13,5.59,5.59,0,0,0,3.74,2.35,6.92,6.92,0,0,0,4.79-1.63,6.74,6.74,0,0,0,.87-8.92,5.41,5.41,0,0,0-4.2-2.34,6.25,6.25,0,0,0-4.93,2.41Zm22.44-2a6.2,6.2,0,0,0-4.76,3,6.38,6.38,0,0,0-.9,6.14c1.82,4.17,8.1,4.12,10.6-.12a5.88,5.88,0,0,0,0-5.78,5.64,5.64,0,0,0-4-3.22A4.59,4.59,0,0,0,42.83,20.77Zm18.23.39a6.57,6.57,0,0,0-1.93.21,6,6,0,0,0-4.28,6.5,6.36,6.36,0,0,0,2.29,4.37,6.55,6.55,0,0,0,5.45,1.18A5.87,5.87,0,0,0,67,29.11a6.08,6.08,0,0,0-.78-5.33,6.57,6.57,0,0,0-5.15-2.62ZM25.15,24.23a1.35,1.35,0,0,1,1.21.69,3.12,3.12,0,0,1-.25,3.8c-.84.74-1.37.8-1.74.75a1.68,1.68,0,0,1-1.09-.78,2.78,2.78,0,0,1,1.87-4.46Zm18,.42a3.09,3.09,0,0,1,1.27,1.21,1.93,1.93,0,0,1,.09,2c-1.09,1.85-3.42,1.35-3.77.55a3.63,3.63,0,0,1,.61-2.5c.63-1,1.43-1.33,1.8-1.27Zm20,1.42a3.51,3.51,0,0,1,.18,2.05,1.8,1.8,0,0,1-1.48,1.53,2.46,2.46,0,0,1-2.26-.39,2.59,2.59,0,0,1-.87-1.75c-.17-1.74.45-2.14,1.44-2.41A3,3,0,0,1,63.11,26.07Z"/><path class="cls-1" d="M109.05,9a2.16,2.16,0,0,1,.55-1.33,1.63,1.63,0,0,1,1.32-.59h12.93a2.16,2.16,0,0,1,1.34.55,1.67,1.67,0,0,1,.7,1.37V29.63h21.62V9a1.87,1.87,0,0,1,.55-1.35,1.85,1.85,0,0,1,1.41-.57h12.75a2.66,2.66,0,0,1,1.52.44,1.54,1.54,0,0,1,.66,1.39V69.79a1.77,1.77,0,0,1-.57,1.43,2.21,2.21,0,0,1-1.48.48H149.47a2,2,0,0,1-1.41-.48,1.81,1.81,0,0,1-.55-1.43V45.07H125.89V69.79a1.75,1.75,0,0,1-.59,1.41,2.38,2.38,0,0,1-1.59.5H110.92c-1.21,0-1.84-.57-1.87-1.7Zm119,62a2.74,2.74,0,0,1-1.2.61,5.94,5.94,0,0,1-1.19.13h-6.57a3,3,0,0,1-1.35-.28,2.87,2.87,0,0,1-1-.76,4.31,4.31,0,0,1-.65-1.09,9.4,9.4,0,0,1-.44-1.26l-1.34-5.57a21.59,21.59,0,0,1-1.9,3.07A16,16,0,0,1,209.34,69a17.36,17.36,0,0,1-4.57,2.53,16.9,16.9,0,0,1-6.09,1,20.48,20.48,0,0,1-15.9-7.13,24.11,24.11,0,0,1-4.42-7.73,28,28,0,0,1-1.57-9.42V19.8a3.8,3.8,0,0,1,.72-2.51,2.85,2.85,0,0,1,2.29-.84h10a3.81,3.81,0,0,1,2.56.63,3.26,3.26,0,0,1,.7,2.45V47.86a7.71,7.71,0,0,0,.85,3.55,10.2,10.2,0,0,0,2.24,3,10.9,10.9,0,0,0,3.15,2,9.25,9.25,0,0,0,3.59.73,8,8,0,0,0,3.24-.73,12.06,12.06,0,0,0,3.09-2,10.5,10.5,0,0,0,2.33-2.92,7.29,7.29,0,0,0,.91-3.54V19.67a4.06,4.06,0,0,1,.29-1.48,2.38,2.38,0,0,1,.85-1.14,3.71,3.71,0,0,1,1.06-.47,4.5,4.5,0,0,1,1.16-.14h9.83a3.47,3.47,0,0,1,2.69.92,3.46,3.46,0,0,1,.83,2.44V68.48a3.14,3.14,0,0,1-.37,1.52,2.62,2.62,0,0,1-1,1.09Zm50.51-6q-1.17,1.17-2.58,2.52A25.24,25.24,0,0,1,272.9,70a17.26,17.26,0,0,1-3.65,1.94,11.5,11.5,0,0,1-4.22.76,26.49,26.49,0,0,1-10.9-2.22,25.9,25.9,0,0,1-8.57-6.07A28,28,0,0,1,240,55.34a30.75,30.75,0,0,1-2-11.22,30.72,30.72,0,0,1,2-11.25,28.18,28.18,0,0,1,5.61-9,25.84,25.84,0,0,1,8.57-6.05A26.8,26.8,0,0,1,265,15.58a13.22,13.22,0,0,1,4.37.69A15.58,15.58,0,0,1,273,18.06a19.76,19.76,0,0,1,3,2.45c.91.92,1.77,1.81,2.58,2.68V3.31A3.44,3.44,0,0,1,279.45,1,3.24,3.24,0,0,1,282,0h9.79A3.36,3.36,0,0,1,293,.24a4.08,4.08,0,0,1,1.16.67A3.45,3.45,0,0,1,295,2a2.75,2.75,0,0,1,.33,1.35v65c0,2.24-1.17,3.35-3.52,3.35h-8.53a3.27,3.27,0,0,1-1.35-.22,2.15,2.15,0,0,1-.81-.63,4.25,4.25,0,0,1-.58-1c-.21-.49-.42-1-.65-1.46L278.6,65Zm-25-20.84a15.6,15.6,0,0,0,.89,5.37A12.7,12.7,0,0,0,257,53.82a12.09,12.09,0,0,0,4,2.89,12.31,12.31,0,0,0,5.16,1.07,13.88,13.88,0,0,0,5.24-1A13.35,13.35,0,0,0,275.69,54a13.75,13.75,0,0,0,4.18-9.28v-.61a14.11,14.11,0,0,0-3.94-9.75,13.66,13.66,0,0,0-4.35-3,13.15,13.15,0,0,0-5.42-1.11A11.89,11.89,0,0,0,261,31.35a12.22,12.22,0,0,0-4,3,13.64,13.64,0,0,0-2.54,4.44,15.71,15.71,0,0,0-.89,5.31ZM345.82,65q-1.17,1.17-2.58,2.52A26,26,0,0,1,340.12,70a17.26,17.26,0,0,1-3.65,1.94,11.5,11.5,0,0,1-4.22.76,26.46,26.46,0,0,1-10.9-2.22,25.9,25.9,0,0,1-8.57-6.07,27.78,27.78,0,0,1-5.61-9.07,30.75,30.75,0,0,1-2-11.22,30.72,30.72,0,0,1,2-11.25,28,28,0,0,1,5.61-9,25.84,25.84,0,0,1,8.57-6.05,26.77,26.77,0,0,1,10.9-2.19,13.22,13.22,0,0,1,4.37.69,15.58,15.58,0,0,1,3.61,1.79,19.76,19.76,0,0,1,3,2.45c.91.92,1.77,1.81,2.58,2.68V3.31A3.44,3.44,0,0,1,346.67,1a3.24,3.24,0,0,1,2.55-1H359a3.36,3.36,0,0,1,1.19.24,4.08,4.08,0,0,1,1.16.67,3.64,3.64,0,0,1,.85,1,2.86,2.86,0,0,1,.32,1.35v65c0,2.24-1.17,3.35-3.52,3.35h-8.53a3.27,3.27,0,0,1-1.35-.22,2.14,2.14,0,0,1-.8-.63,4.29,4.29,0,0,1-.59-1c-.21-.49-.42-1-.65-1.46L345.82,65Zm-25-20.84a15.6,15.6,0,0,0,.89,5.37,12.7,12.7,0,0,0,2.54,4.33,12,12,0,0,0,4,2.89,12.23,12.23,0,0,0,5.15,1.07,13.88,13.88,0,0,0,5.24-1A13.35,13.35,0,0,0,342.91,54a13.87,13.87,0,0,0,4.18-9.28v-.61a13.81,13.81,0,0,0-1-5.31,14.06,14.06,0,0,0-2.89-4.44,13.66,13.66,0,0,0-4.35-3,13.15,13.15,0,0,0-5.42-1.11,11.81,11.81,0,0,0-5.15,1.11,12.15,12.15,0,0,0-4,3,13.64,13.64,0,0,0-2.54,4.44,15.71,15.71,0,0,0-.89,5.31Zm53.3-40.77A3.91,3.91,0,0,1,374.8,1a2.76,2.76,0,0,1,2.39-1h10.66a2.07,2.07,0,0,1,.92.24,3.24,3.24,0,0,1,.89.68,3.87,3.87,0,0,1,.7,1,3.17,3.17,0,0,1,.28,1.35v65a3.18,3.18,0,0,1-.94,2.5,3.41,3.41,0,0,1-2.41.85h-10.1a2.93,2.93,0,0,1-2.39-.85,3.88,3.88,0,0,1-.69-2.5Zm73.26,61.74a28.87,28.87,0,0,1-8.61,5.5,26.1,26.1,0,0,1-10.14,2A29.15,29.15,0,0,1,401.69,55.3a27.31,27.31,0,0,1-2.35-11.36,29.53,29.53,0,0,1,3.59-14.14A28.53,28.53,0,0,1,407.11,24a26.52,26.52,0,0,1,5.5-4.51,27.26,27.26,0,0,1,6.61-2.91,26.28,26.28,0,0,1,7.53-1,25.93,25.93,0,0,1,7,1,27.35,27.35,0,0,1,11.84,6.88,28.41,28.41,0,0,1,4.26,5.33,25.81,25.81,0,0,1,2.77,6.18,23.62,23.62,0,0,1,1,6.76c0,1.51,0,2.74-.07,3.7a4.16,4.16,0,0,1-.67,2.28,3.28,3.28,0,0,1-2,1.18,19.69,19.69,0,0,1-4.15.32H415.35a10.89,10.89,0,0,0,1.76,4.66,11,11,0,0,0,3.07,3,12.23,12.23,0,0,0,3.7,1.59,15.39,15.39,0,0,0,3.7.48,16.53,16.53,0,0,0,3.22-.33,22.62,22.62,0,0,0,3.2-.87,18.24,18.24,0,0,0,2.82-1.26,9.39,9.39,0,0,0,2.07-1.5,8.33,8.33,0,0,1,1.2-.85,2.08,2.08,0,0,1,1.06-.28,2.12,2.12,0,0,1,1.16.39,8.86,8.86,0,0,1,1.32,1.13l4.61,5.22a2.84,2.84,0,0,1,.61,1,3.33,3.33,0,0,1,.13.94,2.46,2.46,0,0,1-.47,1.5,6,6,0,0,1-1.14,1.11ZM426.45,28.85a8.31,8.31,0,0,0-3.29.67,12.43,12.43,0,0,0-3,1.81,15.15,15.15,0,0,0-2.5,2.56,16,16,0,0,0-1.81,2.92h22.24a26.65,26.65,0,0,0-2-3.13,13.3,13.3,0,0,0-2.44-2.53,10.44,10.44,0,0,0-3.13-1.69A12.52,12.52,0,0,0,426.45,28.85Z"/></g></g></svg>